<?xml version="1.0" encoding="UTF-8" standalone="no"?>
<!DOCTYPE svg PUBLIC "-//W3C//DTD SVG 1.1//EN"
 "http://www.w3.org/Graphics/SVG/1.1/DTD/svg11.dtd">
<!-- Generated by graphviz version 2.40.1 (20161225.0304)
 -->
<!-- Title: Tree Pages: 1 -->
<svg width="630pt" height="671pt"
 viewBox="0.00 0.00 630.00 671.00" xmlns="http://www.w3.org/2000/svg" xmlns:xlink="http://www.w3.org/1999/xlink">
<g id="graph0" class="graph" transform="scale(1 1) rotate(0) translate(4 667)">
<title>Tree</title>
<polygon fill="#ffffff" stroke="transparent" points="-4,4 -4,-667 626,-667 626,4 -4,4"/>
<!-- 0 -->
<g id="node1" class="node">
<title>0</title>
<path fill="#f7f3fd" stroke="#000000" d="M322.5,-663C322.5,-663 206.5,-663 206.5,-663 200.5,-663 194.5,-657 194.5,-651 194.5,-651 194.5,-592 194.5,-592 194.5,-586 200.5,-580 206.5,-580 206.5,-580 322.5,-580 322.5,-580 328.5,-580 334.5,-586 334.5,-592 334.5,-592 334.5,-651 334.5,-651 334.5,-657 328.5,-663 322.5,-663"/>
<text text-anchor="start" x="210" y="-647.8" font-family="Helvetica,sans-Serif" font-size="14.00" fill="#000000">petal_width ≤ 0.8</text>
<text text-anchor="start" x="226.5" y="-632.8" font-family="Helvetica,sans-Serif" font-size="14.00" fill="#000000">gini = 0.665</text>
<text text-anchor="start" x="216.5" y="-617.8" font-family="Helvetica,sans-Serif" font-size="14.00" fill="#000000">samples = 120</text>
<text text-anchor="start" x="202.5" y="-602.8" font-family="Helvetica,sans-Serif" font-size="14.00" fill="#000000">value = [39, 37, 44]</text>
<text text-anchor="start" x="235.5" y="-587.8" font-family="Helvetica,sans-Serif" font-size="14.00" fill="#000000">class = e</text>
</g>
<!-- 1 -->
<g id="node2" class="node">
<title>1</title>
<path fill="#e58139" stroke="#000000" d="M241,-536.5C241,-536.5 142,-536.5 142,-536.5 136,-536.5 130,-530.5 130,-524.5 130,-524.5 130,-480.5 130,-480.5 130,-474.5 136,-468.5 142,-468.5 142,-468.5 241,-468.5 241,-468.5 247,-468.5 253,-474.5 253,-480.5 253,-480.5 253,-524.5 253,-524.5 253,-530.5 247,-536.5 241,-536.5"/>
<text text-anchor="start" x="162" y="-521.3" font-family="Helvetica,sans-Serif" font-size="14.00" fill="#000000">gini = 0.0</text>
<text text-anchor="start" x="147.5" y="-506.3" font-family="Helvetica,sans-Serif" font-size="14.00" fill="#000000">samples = 39</text>
<text text-anchor="start" x="138" y="-491.3" font-family="Helvetica,sans-Serif" font-size="14.00" fill="#000000">value = [39, 0, 0]</text>
<text text-anchor="start" x="162.5" y="-476.3" font-family="Helvetica,sans-Serif" font-size="14.00" fill="#000000">class = s</text>
</g>
<!-- 0&#45;&gt;1 -->
<g id="edge1" class="edge">
<title>0&#45;&gt;1</title>
<path fill="none" stroke="#000000" d="M238.9681,-579.8796C232.1552,-568.7735 224.7802,-556.7513 217.9206,-545.5691"/>
<polygon fill="#000000" stroke="#000000" points="220.7628,-543.5087 212.5503,-536.8149 214.796,-547.1691 220.7628,-543.5087"/>
<text text-anchor="middle" x="206.7256" y="-557.4269" font-family="Helvetica,sans-Serif" font-size="14.00" fill="#000000">True</text>
</g>
<!-- 2 -->
<g id="node3" class="node">
<title>2</title>
<path fill="#ebe0fb" stroke="#000000" d="M393.5,-544C393.5,-544 283.5,-544 283.5,-544 277.5,-544 271.5,-538 271.5,-532 271.5,-532 271.5,-473 271.5,-473 271.5,-467 277.5,-461 283.5,-461 283.5,-461 393.5,-461 393.5,-461 399.5,-461 405.5,-467 405.5,-473 405.5,-473 405.5,-532 405.5,-532 405.5,-538 399.5,-544 393.5,-544"/>
<text text-anchor="start" x="279.5" y="-528.8" font-family="Helvetica,sans-Serif" font-size="14.00" fill="#000000">petal_width ≤ 1.65</text>
<text text-anchor="start" x="300.5" y="-513.8" font-family="Helvetica,sans-Serif" font-size="14.00" fill="#000000">gini = 0.496</text>
<text text-anchor="start" x="294.5" y="-498.8" font-family="Helvetica,sans-Serif" font-size="14.00" fill="#000000">samples = 81</text>
<text text-anchor="start" x="281" y="-483.8" font-family="Helvetica,sans-Serif" font-size="14.00" fill="#000000">value = [0, 37, 44]</text>
<text text-anchor="start" x="309.5" y="-468.8" font-family="Helvetica,sans-Serif" font-size="14.00" fill="#000000">class = e</text>
</g>
<!-- 0&#45;&gt;2 -->
<g id="edge2" class="edge">
<title>0&#45;&gt;2</title>
<path fill="none" stroke="#000000" d="M290.3816,-579.8796C295.8142,-571.1434 301.5992,-561.8404 307.2053,-552.8253"/>
<polygon fill="#000000" stroke="#000000" points="310.1993,-554.6383 312.5079,-544.2981 304.2549,-550.9418 310.1993,-554.6383"/>
<text text-anchor="middle" x="318.1847" y="-564.945" font-family="Helvetica,sans-Serif" font-size="14.00" fill="#000000">False</text>
</g>
<!-- 3 -->
<g id="node4" class="node">
<title>3</title>
<path fill="#4fe88f" stroke="#000000" d="M317.5,-425C317.5,-425 201.5,-425 201.5,-425 195.5,-425 189.5,-419 189.5,-413 189.5,-413 189.5,-354 189.5,-354 189.5,-348 195.5,-342 201.5,-342 201.5,-342 317.5,-342 317.5,-342 323.5,-342 329.5,-348 329.5,-354 329.5,-354 329.5,-413 329.5,-413 329.5,-419 323.5,-425 317.5,-425"/>
<text text-anchor="start" x="197.5" y="-409.8" font-family="Helvetica,sans-Serif" font-size="14.00" fill="#000000">petal_length ≤ 4.95</text>
<text text-anchor="start" x="226" y="-394.8" font-family="Helvetica,sans-Serif" font-size="14.00" fill="#000000">gini = 0.18</text>
<text text-anchor="start" x="215.5" y="-379.8" font-family="Helvetica,sans-Serif" font-size="14.00" fill="#000000">samples = 40</text>
<text text-anchor="start" x="206" y="-364.8" font-family="Helvetica,sans-Serif" font-size="14.00" fill="#000000">value = [0, 36, 4]</text>
<text text-anchor="start" x="230.5" y="-349.8" font-family="Helvetica,sans-Serif" font-size="14.00" fill="#000000">class = p</text>
</g>
<!-- 2&#45;&gt;3 -->
<g id="edge3" class="edge">
<title>2&#45;&gt;3</title>
<path fill="none" stroke="#000000" d="M310.8696,-460.8796C305.07,-452.1434 298.8941,-442.8404 292.9092,-433.8253"/>
<polygon fill="#000000" stroke="#000000" points="295.6951,-431.6935 287.2483,-425.2981 289.8632,-435.5652 295.6951,-431.6935"/>
</g>
<!-- 10 -->
<g id="node11" class="node">
<title>10</title>
<path fill="#843ee6" stroke="#000000" d="M475.5,-425C475.5,-425 359.5,-425 359.5,-425 353.5,-425 347.5,-419 347.5,-413 347.5,-413 347.5,-354 347.5,-354 347.5,-348 353.5,-342 359.5,-342 359.5,-342 475.5,-342 475.5,-342 481.5,-342 487.5,-348 487.5,-354 487.5,-354 487.5,-413 487.5,-413 487.5,-419 481.5,-425 475.5,-425"/>
<text text-anchor="start" x="355.5" y="-409.8" font-family="Helvetica,sans-Serif" font-size="14.00" fill="#000000">petal_length ≤ 4.85</text>
<text text-anchor="start" x="379.5" y="-394.8" font-family="Helvetica,sans-Serif" font-size="14.00" fill="#000000">gini = 0.048</text>
<text text-anchor="start" x="373.5" y="-379.8" font-family="Helvetica,sans-Serif" font-size="14.00" fill="#000000">samples = 41</text>
<text text-anchor="start" x="364" y="-364.8" font-family="Helvetica,sans-Serif" font-size="14.00" fill="#000000">value = [0, 1, 40]</text>
<text text-anchor="start" x="388.5" y="-349.8" font-family="Helvetica,sans-Serif" font-size="14.00" fill="#000000">class = e</text>
</g>
<!-- 2&#45;&gt;10 -->
<g id="edge10" class="edge">
<title>2&#45;&gt;10</title>
<path fill="none" stroke="#000000" d="M366.1304,-460.8796C371.93,-452.1434 378.1059,-442.8404 384.0908,-433.8253"/>
<polygon fill="#000000" stroke="#000000" points="387.1368,-435.5652 389.7517,-425.2981 381.3049,-431.6935 387.1368,-435.5652"/>
</g>
<!-- 4 -->
<g id="node5" class="node">
<title>4</title>
<path fill="#39e581" stroke="#000000" d="M160,-298.5C160,-298.5 61,-298.5 61,-298.5 55,-298.5 49,-292.5 49,-286.5 49,-286.5 49,-242.5 49,-242.5 49,-236.5 55,-230.5 61,-230.5 61,-230.5 160,-230.5 160,-230.5 166,-230.5 172,-236.5 172,-242.5 172,-242.5 172,-286.5 172,-286.5 172,-292.5 166,-298.5 160,-298.5"/>
<text text-anchor="start" x="81" y="-283.3" font-family="Helvetica,sans-Serif" font-size="14.00" fill="#000000">gini = 0.0</text>
<text text-anchor="start" x="66.5" y="-268.3" font-family="Helvetica,sans-Serif" font-size="14.00" fill="#000000">samples = 35</text>
<text text-anchor="start" x="57" y="-253.3" font-family="Helvetica,sans-Serif" font-size="14.00" fill="#000000">value = [0, 35, 0]</text>
<text text-anchor="start" x="81.5" y="-238.3" font-family="Helvetica,sans-Serif" font-size="14.00" fill="#000000">class = p</text>
</g>
<!-- 3&#45;&gt;4 -->
<g id="edge4" class="edge">
<title>3&#45;&gt;4</title>
<path fill="none" stroke="#000000" d="M207.387,-341.8796C192.5174,-330.0038 176.336,-317.0804 161.5317,-305.2568"/>
<polygon fill="#000000" stroke="#000000" points="163.4638,-302.3207 153.4658,-298.8149 159.0954,-307.7904 163.4638,-302.3207"/>
</g>
<!-- 5 -->
<g id="node6" class="node">
<title>5</title>
<path fill="#a06aec" stroke="#000000" d="M321,-306C321,-306 202,-306 202,-306 196,-306 190,-300 190,-294 190,-294 190,-235 190,-235 190,-229 196,-223 202,-223 202,-223 321,-223 321,-223 327,-223 333,-229 333,-235 333,-235 333,-294 333,-294 333,-300 327,-306 321,-306"/>
<text text-anchor="start" x="198" y="-290.8" font-family="Helvetica,sans-Serif" font-size="14.00" fill="#000000">sepal_length ≤ 6.05</text>
<text text-anchor="start" x="228" y="-275.8" font-family="Helvetica,sans-Serif" font-size="14.00" fill="#000000">gini = 0.32</text>
<text text-anchor="start" x="222" y="-260.8" font-family="Helvetica,sans-Serif" font-size="14.00" fill="#000000">samples = 5</text>
<text text-anchor="start" x="212" y="-245.8" font-family="Helvetica,sans-Serif" font-size="14.00" fill="#000000">value = [0, 1, 4]</text>
<text text-anchor="start" x="232.5" y="-230.8" font-family="Helvetica,sans-Serif" font-size="14.00" fill="#000000">class = e</text>
</g>
<!-- 3&#45;&gt;5 -->
<g id="edge5" class="edge">
<title>3&#45;&gt;5</title>
<path fill="none" stroke="#000000" d="M260.1995,-341.8796C260.3372,-333.6838 260.4834,-324.9891 260.626,-316.5013"/>
<polygon fill="#000000" stroke="#000000" points="264.1289,-316.3555 260.7975,-306.2981 257.1299,-316.2378 264.1289,-316.3555"/>
</g>
<!-- 6 -->
<g id="node7" class="node">
<title>6</title>
<path fill="#ffffff" stroke="#000000" d="M178.5,-187C178.5,-187 68.5,-187 68.5,-187 62.5,-187 56.5,-181 56.5,-175 56.5,-175 56.5,-116 56.5,-116 56.5,-110 62.5,-104 68.5,-104 68.5,-104 178.5,-104 178.5,-104 184.5,-104 190.5,-110 190.5,-116 190.5,-116 190.5,-175 190.5,-175 190.5,-181 184.5,-187 178.5,-187"/>
<text text-anchor="start" x="64.5" y="-171.8" font-family="Helvetica,sans-Serif" font-size="14.00" fill="#000000">petal_width ≤ 1.55</text>
<text text-anchor="start" x="94" y="-156.8" font-family="Helvetica,sans-Serif" font-size="14.00" fill="#000000">gini = 0.5</text>
<text text-anchor="start" x="84" y="-141.8" font-family="Helvetica,sans-Serif" font-size="14.00" fill="#000000">samples = 2</text>
<text text-anchor="start" x="74" y="-126.8" font-family="Helvetica,sans-Serif" font-size="14.00" fill="#000000">value = [0, 1, 1]</text>
<text text-anchor="start" x="94.5" y="-111.8" font-family="Helvetica,sans-Serif" font-size="14.00" fill="#000000">class = p</text>
</g>
<!-- 5&#45;&gt;6 -->
<g id="edge6" class="edge">
<title>5&#45;&gt;6</title>
<path fill="none" stroke="#000000" d="M213.2343,-222.8796C202.3722,-213.513 190.7544,-203.4948 179.6027,-193.8784"/>
<polygon fill="#000000" stroke="#000000" points="181.8306,-191.178 171.9717,-187.2981 177.2592,-196.4792 181.8306,-191.178"/>
</g>
<!-- 9 -->
<g id="node10" class="node">
<title>9</title>
<path fill="#8139e5" stroke="#000000" d="M312,-179.5C312,-179.5 221,-179.5 221,-179.5 215,-179.5 209,-173.5 209,-167.5 209,-167.5 209,-123.5 209,-123.5 209,-117.5 215,-111.5 221,-111.5 221,-111.5 312,-111.5 312,-111.5 318,-111.5 324,-117.5 324,-123.5 324,-123.5 324,-167.5 324,-167.5 324,-173.5 318,-179.5 312,-179.5"/>
<text text-anchor="start" x="237" y="-164.3" font-family="Helvetica,sans-Serif" font-size="14.00" fill="#000000">gini = 0.0</text>
<text text-anchor="start" x="227" y="-149.3" font-family="Helvetica,sans-Serif" font-size="14.00" fill="#000000">samples = 3</text>
<text text-anchor="start" x="217" y="-134.3" font-family="Helvetica,sans-Serif" font-size="14.00" fill="#000000">value = [0, 0, 3]</text>
<text text-anchor="start" x="237.5" y="-119.3" font-family="Helvetica,sans-Serif" font-size="14.00" fill="#000000">class = e</text>
</g>
<!-- 5&#45;&gt;9 -->
<g id="edge9" class="edge">
<title>5&#45;&gt;9</title>
<path fill="none" stroke="#000000" d="M263.2488,-222.8796C263.6969,-212.2134 264.1806,-200.7021 264.6344,-189.9015"/>
<polygon fill="#000000" stroke="#000000" points="268.1352,-189.9531 265.0582,-179.8149 261.1414,-189.6592 268.1352,-189.9531"/>
</g>
<!-- 7 -->
<g id="node8" class="node">
<title>7</title>
<path fill="#8139e5" stroke="#000000" d="M103,-68C103,-68 12,-68 12,-68 6,-68 0,-62 0,-56 0,-56 0,-12 0,-12 0,-6 6,0 12,0 12,0 103,0 103,0 109,0 115,-6 115,-12 115,-12 115,-56 115,-56 115,-62 109,-68 103,-68"/>
<text text-anchor="start" x="28" y="-52.8" font-family="Helvetica,sans-Serif" font-size="14.00" fill="#000000">gini = 0.0</text>
<text text-anchor="start" x="18" y="-37.8" font-family="Helvetica,sans-Serif" font-size="14.00" fill="#000000">samples = 1</text>
<text text-anchor="start" x="8" y="-22.8" font-family="Helvetica,sans-Serif" font-size="14.00" fill="#000000">value = [0, 0, 1]</text>
<text text-anchor="start" x="28.5" y="-7.8" font-family="Helvetica,sans-Serif" font-size="14.00" fill="#000000">class = e</text>
</g>
<!-- 6&#45;&gt;7 -->
<g id="edge7" class="edge">
<title>6&#45;&gt;7</title>
<path fill="none" stroke="#000000" d="M98.924,-103.9815C93.7014,-95.1585 88.1771,-85.8258 82.9237,-76.9506"/>
<polygon fill="#000000" stroke="#000000" points="85.8874,-75.0863 77.7816,-68.2637 79.8636,-78.652 85.8874,-75.0863"/>
</g>
<!-- 8 -->
<g id="node9" class="node">
<title>8</title>
<path fill="#39e581" stroke="#000000" d="M236,-68C236,-68 145,-68 145,-68 139,-68 133,-62 133,-56 133,-56 133,-12 133,-12 133,-6 139,0 145,0 145,0 236,0 236,0 242,0 248,-6 248,-12 248,-12 248,-56 248,-56 248,-62 242,-68 236,-68"/>
<text text-anchor="start" x="161" y="-52.8" font-family="Helvetica,sans-Serif" font-size="14.00" fill="#000000">gini = 0.0</text>
<text text-anchor="start" x="151" y="-37.8" font-family="Helvetica,sans-Serif" font-size="14.00" fill="#000000">samples = 1</text>
<text text-anchor="start" x="141" y="-22.8" font-family="Helvetica,sans-Serif" font-size="14.00" fill="#000000">value = [0, 1, 0]</text>
<text text-anchor="start" x="161.5" y="-7.8" font-family="Helvetica,sans-Serif" font-size="14.00" fill="#000000">class = p</text>
</g>
<!-- 6&#45;&gt;8 -->
<g id="edge8" class="edge">
<title>6&#45;&gt;8</title>
<path fill="none" stroke="#000000" d="M148.4483,-103.9815C153.7501,-95.1585 159.3581,-85.8258 164.6911,-76.9506"/>
<polygon fill="#000000" stroke="#000000" points="167.7605,-78.638 169.9111,-68.2637 161.7604,-75.0325 167.7605,-78.638"/>
</g>
<!-- 11 -->
<g id="node12" class="node">
<title>11</title>
<path fill="#ab7bee" stroke="#000000" d="M469,-306C469,-306 364,-306 364,-306 358,-306 352,-300 352,-294 352,-294 352,-235 352,-235 352,-229 358,-223 364,-223 364,-223 469,-223 469,-223 475,-223 481,-229 481,-235 481,-235 481,-294 481,-294 481,-300 475,-306 469,-306"/>
<text text-anchor="start" x="360" y="-290.8" font-family="Helvetica,sans-Serif" font-size="14.00" fill="#000000">sepal_width ≤ 3.1</text>
<text text-anchor="start" x="378.5" y="-275.8" font-family="Helvetica,sans-Serif" font-size="14.00" fill="#000000">gini = 0.375</text>
<text text-anchor="start" x="377" y="-260.8" font-family="Helvetica,sans-Serif" font-size="14.00" fill="#000000">samples = 4</text>
<text text-anchor="start" x="367" y="-245.8" font-family="Helvetica,sans-Serif" font-size="14.00" fill="#000000">value = [0, 1, 3]</text>
<text text-anchor="start" x="387.5" y="-230.8" font-family="Helvetica,sans-Serif" font-size="14.00" fill="#000000">class = e</text>
</g>
<!-- 10&#45;&gt;11 -->
<g id="edge11" class="edge">
<title>10&#45;&gt;11</title>
<path fill="none" stroke="#000000" d="M417.1502,-341.8796C417.0814,-333.6838 417.0083,-324.9891 416.937,-316.5013"/>
<polygon fill="#000000" stroke="#000000" points="420.4352,-316.2683 416.8512,-306.2981 413.4355,-316.3272 420.4352,-316.2683"/>
</g>
<!-- 14 -->
<g id="node15" class="node">
<title>14</title>
<path fill="#8139e5" stroke="#000000" d="M610,-298.5C610,-298.5 511,-298.5 511,-298.5 505,-298.5 499,-292.5 499,-286.5 499,-286.5 499,-242.5 499,-242.5 499,-236.5 505,-230.5 511,-230.5 511,-230.5 610,-230.5 610,-230.5 616,-230.5 622,-236.5 622,-242.5 622,-242.5 622,-286.5 622,-286.5 622,-292.5 616,-298.5 610,-298.5"/>
<text text-anchor="start" x="531" y="-283.3" font-family="Helvetica,sans-Serif" font-size="14.00" fill="#000000">gini = 0.0</text>
<text text-anchor="start" x="516.5" y="-268.3" font-family="Helvetica,sans-Serif" font-size="14.00" fill="#000000">samples = 37</text>
<text text-anchor="start" x="507" y="-253.3" font-family="Helvetica,sans-Serif" font-size="14.00" fill="#000000">value = [0, 0, 37]</text>
<text text-anchor="start" x="531.5" y="-238.3" font-family="Helvetica,sans-Serif" font-size="14.00" fill="#000000">class = e</text>
</g>
<!-- 10&#45;&gt;14 -->
<g id="edge14" class="edge">
<title>10&#45;&gt;14</title>
<path fill="none" stroke="#000000" d="M467.5145,-341.8796C481.7853,-330.0038 497.3151,-317.0804 511.5233,-305.2568"/>
<polygon fill="#000000" stroke="#000000" points="513.8166,-307.9019 519.2644,-298.8149 509.339,-302.5212 513.8166,-307.9019"/>
</g>
<!-- 12 -->
<g id="node13" class="node">
<title>12</title>
<path fill="#8139e5" stroke="#000000" d="M457,-179.5C457,-179.5 366,-179.5 366,-179.5 360,-179.5 354,-173.5 354,-167.5 354,-167.5 354,-123.5 354,-123.5 354,-117.5 360,-111.5 366,-111.5 366,-111.5 457,-111.5 457,-111.5 463,-111.5 469,-117.5 469,-123.5 469,-123.5 469,-167.5 469,-167.5 469,-173.5 463,-179.5 457,-179.5"/>
<text text-anchor="start" x="382" y="-164.3" font-family="Helvetica,sans-Serif" font-size="14.00" fill="#000000">gini = 0.0</text>
<text text-anchor="start" x="372" y="-149.3" font-family="Helvetica,sans-Serif" font-size="14.00" fill="#000000">samples = 3</text>
<text text-anchor="start" x="362" y="-134.3" font-family="Helvetica,sans-Serif" font-size="14.00" fill="#000000">value = [0, 0, 3]</text>
<text text-anchor="start" x="382.5" y="-119.3" font-family="Helvetica,sans-Serif" font-size="14.00" fill="#000000">class = e</text>
</g>
<!-- 11&#45;&gt;12 -->
<g id="edge12" class="edge">
<title>11&#45;&gt;12</title>
<path fill="none" stroke="#000000" d="M414.7512,-222.8796C414.3031,-212.2134 413.8194,-200.7021 413.3656,-189.9015"/>
<polygon fill="#000000" stroke="#000000" points="416.8586,-189.6592 412.9418,-179.8149 409.8648,-189.9531 416.8586,-189.6592"/>
</g>
<!-- 13 -->
<g id="node14" class="node">
<title>13</title>
<path fill="#39e581" stroke="#000000" d="M590,-179.5C590,-179.5 499,-179.5 499,-179.5 493,-179.5 487,-173.5 487,-167.5 487,-167.5 487,-123.5 487,-123.5 487,-117.5 493,-111.5 499,-111.5 499,-111.5 590,-111.5 590,-111.5 596,-111.5 602,-117.5 602,-123.5 602,-123.5 602,-167.5 602,-167.5 602,-173.5 596,-179.5 590,-179.5"/>
<text text-anchor="start" x="515" y="-164.3" font-family="Helvetica,sans-Serif" font-size="14.00" fill="#000000">gini = 0.0</text>
<text text-anchor="start" x="505" y="-149.3" font-family="Helvetica,sans-Serif" font-size="14.00" fill="#000000">samples = 1</text>
<text text-anchor="start" x="495" y="-134.3" font-family="Helvetica,sans-Serif" font-size="14.00" fill="#000000">value = [0, 1, 0]</text>
<text text-anchor="start" x="515.5" y="-119.3" font-family="Helvetica,sans-Serif" font-size="14.00" fill="#000000">class = p</text>
</g>
<!-- 11&#45;&gt;13 -->
<g id="edge13" class="edge">
<title>11&#45;&gt;13</title>
<path fill="none" stroke="#000000" d="M461.2682,-222.8796C473.8056,-211.2237 487.4284,-198.5587 499.953,-186.9148"/>
<polygon fill="#000000" stroke="#000000" points="502.6491,-189.1872 507.5898,-179.8149 497.8828,-184.0605 502.6491,-189.1872"/>
</g>
</g>
</svg>
