<?xml version="1.0" encoding="UTF-8" standalone="no"?>
<!DOCTYPE svg PUBLIC "-//W3C//DTD SVG 1.1//EN"
 "http://www.w3.org/Graphics/SVG/1.1/DTD/svg11.dtd">
<!-- Generated by graphviz version 2.40.1 (20161225.0304)
 -->
<!-- Title: Tree Pages: 1 -->
<svg width="633pt" height="671pt"
 viewBox="0.00 0.00 633.00 671.00" xmlns="http://www.w3.org/2000/svg" xmlns:xlink="http://www.w3.org/1999/xlink">
<g id="graph0" class="graph" transform="scale(1 1) rotate(0) translate(4 667)">
<title>Tree</title>
<polygon fill="#ffffff" stroke="transparent" points="-4,4 -4,-667 629,-667 629,4 -4,4"/>
<!-- 0 -->
<g id="node1" class="node">
<title>0</title>
<path fill="#f7f3fd" stroke="#000000" d="M325.5,-663C325.5,-663 209.5,-663 209.5,-663 203.5,-663 197.5,-657 197.5,-651 197.5,-651 197.5,-592 197.5,-592 197.5,-586 203.5,-580 209.5,-580 209.5,-580 325.5,-580 325.5,-580 331.5,-580 337.5,-586 337.5,-592 337.5,-592 337.5,-651 337.5,-651 337.5,-657 331.5,-663 325.5,-663"/>
<text text-anchor="start" x="213" y="-647.8" font-family="Helvetica,sans-Serif" font-size="14.00" fill="#000000">petal_width ≤ 0.8</text>
<text text-anchor="start" x="229.5" y="-632.8" font-family="Helvetica,sans-Serif" font-size="14.00" fill="#000000">gini = 0.665</text>
<text text-anchor="start" x="219.5" y="-617.8" font-family="Helvetica,sans-Serif" font-size="14.00" fill="#000000">samples = 120</text>
<text text-anchor="start" x="205.5" y="-602.8" font-family="Helvetica,sans-Serif" font-size="14.00" fill="#000000">value = [39, 37, 44]</text>
<text text-anchor="start" x="238.5" y="-587.8" font-family="Helvetica,sans-Serif" font-size="14.00" fill="#000000">class = e</text>
</g>
<!-- 1 -->
<g id="node2" class="node">
<title>1</title>
<path fill="#e58139" stroke="#000000" d="M244,-536.5C244,-536.5 145,-536.5 145,-536.5 139,-536.5 133,-530.5 133,-524.5 133,-524.5 133,-480.5 133,-480.5 133,-474.5 139,-468.5 145,-468.5 145,-468.5 244,-468.5 244,-468.5 250,-468.5 256,-474.5 256,-480.5 256,-480.5 256,-524.5 256,-524.5 256,-530.5 250,-536.5 244,-536.5"/>
<text text-anchor="start" x="165" y="-521.3" font-family="Helvetica,sans-Serif" font-size="14.00" fill="#000000">gini = 0.0</text>
<text text-anchor="start" x="150.5" y="-506.3" font-family="Helvetica,sans-Serif" font-size="14.00" fill="#000000">samples = 39</text>
<text text-anchor="start" x="141" y="-491.3" font-family="Helvetica,sans-Serif" font-size="14.00" fill="#000000">value = [39, 0, 0]</text>
<text text-anchor="start" x="165.5" y="-476.3" font-family="Helvetica,sans-Serif" font-size="14.00" fill="#000000">class = s</text>
</g>
<!-- 0&#45;&gt;1 -->
<g id="edge1" class="edge">
<title>0&#45;&gt;1</title>
<path fill="none" stroke="#000000" d="M241.9681,-579.8796C235.1552,-568.7735 227.7802,-556.7513 220.9206,-545.5691"/>
<polygon fill="#000000" stroke="#000000" points="223.7628,-543.5087 215.5503,-536.8149 217.796,-547.1691 223.7628,-543.5087"/>
<text text-anchor="middle" x="209.7256" y="-557.4269" font-family="Helvetica,sans-Serif" font-size="14.00" fill="#000000">True</text>
</g>
<!-- 2 -->
<g id="node3" class="node">
<title>2</title>
<path fill="#ebe0fb" stroke="#000000" d="M396.5,-544C396.5,-544 286.5,-544 286.5,-544 280.5,-544 274.5,-538 274.5,-532 274.5,-532 274.5,-473 274.5,-473 274.5,-467 280.5,-461 286.5,-461 286.5,-461 396.5,-461 396.5,-461 402.5,-461 408.5,-467 408.5,-473 408.5,-473 408.5,-532 408.5,-532 408.5,-538 402.5,-544 396.5,-544"/>
<text text-anchor="start" x="282.5" y="-528.8" font-family="Helvetica,sans-Serif" font-size="14.00" fill="#000000">petal_width ≤ 1.65</text>
<text text-anchor="start" x="303.5" y="-513.8" font-family="Helvetica,sans-Serif" font-size="14.00" fill="#000000">gini = 0.496</text>
<text text-anchor="start" x="297.5" y="-498.8" font-family="Helvetica,sans-Serif" font-size="14.00" fill="#000000">samples = 81</text>
<text text-anchor="start" x="284" y="-483.8" font-family="Helvetica,sans-Serif" font-size="14.00" fill="#000000">value = [0, 37, 44]</text>
<text text-anchor="start" x="312.5" y="-468.8" font-family="Helvetica,sans-Serif" font-size="14.00" fill="#000000">class = e</text>
</g>
<!-- 0&#45;&gt;2 -->
<g id="edge2" class="edge">
<title>0&#45;&gt;2</title>
<path fill="none" stroke="#000000" d="M293.3816,-579.8796C298.8142,-571.1434 304.5992,-561.8404 310.2053,-552.8253"/>
<polygon fill="#000000" stroke="#000000" points="313.1993,-554.6383 315.5079,-544.2981 307.2549,-550.9418 313.1993,-554.6383"/>
<text text-anchor="middle" x="321.1847" y="-564.945" font-family="Helvetica,sans-Serif" font-size="14.00" fill="#000000">False</text>
</g>
<!-- 3 -->
<g id="node4" class="node">
<title>3</title>
<path fill="#4fe88f" stroke="#000000" d="M320.5,-425C320.5,-425 204.5,-425 204.5,-425 198.5,-425 192.5,-419 192.5,-413 192.5,-413 192.5,-354 192.5,-354 192.5,-348 198.5,-342 204.5,-342 204.5,-342 320.5,-342 320.5,-342 326.5,-342 332.5,-348 332.5,-354 332.5,-354 332.5,-413 332.5,-413 332.5,-419 326.5,-425 320.5,-425"/>
<text text-anchor="start" x="200.5" y="-409.8" font-family="Helvetica,sans-Serif" font-size="14.00" fill="#000000">petal_length ≤ 4.95</text>
<text text-anchor="start" x="229" y="-394.8" font-family="Helvetica,sans-Serif" font-size="14.00" fill="#000000">gini = 0.18</text>
<text text-anchor="start" x="218.5" y="-379.8" font-family="Helvetica,sans-Serif" font-size="14.00" fill="#000000">samples = 40</text>
<text text-anchor="start" x="209" y="-364.8" font-family="Helvetica,sans-Serif" font-size="14.00" fill="#000000">value = [0, 36, 4]</text>
<text text-anchor="start" x="233.5" y="-349.8" font-family="Helvetica,sans-Serif" font-size="14.00" fill="#000000">class = p</text>
</g>
<!-- 2&#45;&gt;3 -->
<g id="edge3" class="edge">
<title>2&#45;&gt;3</title>
<path fill="none" stroke="#000000" d="M313.8696,-460.8796C308.07,-452.1434 301.8941,-442.8404 295.9092,-433.8253"/>
<polygon fill="#000000" stroke="#000000" points="298.6951,-431.6935 290.2483,-425.2981 292.8632,-435.5652 298.6951,-431.6935"/>
</g>
<!-- 10 -->
<g id="node11" class="node">
<title>10</title>
<path fill="#843ee6" stroke="#000000" d="M478.5,-425C478.5,-425 362.5,-425 362.5,-425 356.5,-425 350.5,-419 350.5,-413 350.5,-413 350.5,-354 350.5,-354 350.5,-348 356.5,-342 362.5,-342 362.5,-342 478.5,-342 478.5,-342 484.5,-342 490.5,-348 490.5,-354 490.5,-354 490.5,-413 490.5,-413 490.5,-419 484.5,-425 478.5,-425"/>
<text text-anchor="start" x="358.5" y="-409.8" font-family="Helvetica,sans-Serif" font-size="14.00" fill="#000000">petal_length ≤ 4.85</text>
<text text-anchor="start" x="382.5" y="-394.8" font-family="Helvetica,sans-Serif" font-size="14.00" fill="#000000">gini = 0.048</text>
<text text-anchor="start" x="376.5" y="-379.8" font-family="Helvetica,sans-Serif" font-size="14.00" fill="#000000">samples = 41</text>
<text text-anchor="start" x="367" y="-364.8" font-family="Helvetica,sans-Serif" font-size="14.00" fill="#000000">value = [0, 1, 40]</text>
<text text-anchor="start" x="391.5" y="-349.8" font-family="Helvetica,sans-Serif" font-size="14.00" fill="#000000">class = e</text>
</g>
<!-- 2&#45;&gt;10 -->
<g id="edge10" class="edge">
<title>2&#45;&gt;10</title>
<path fill="none" stroke="#000000" d="M369.1304,-460.8796C374.93,-452.1434 381.1059,-442.8404 387.0908,-433.8253"/>
<polygon fill="#000000" stroke="#000000" points="390.1368,-435.5652 392.7517,-425.2981 384.3049,-431.6935 390.1368,-435.5652"/>
</g>
<!-- 4 -->
<g id="node5" class="node">
<title>4</title>
<path fill="#39e581" stroke="#000000" d="M163,-298.5C163,-298.5 64,-298.5 64,-298.5 58,-298.5 52,-292.5 52,-286.5 52,-286.5 52,-242.5 52,-242.5 52,-236.5 58,-230.5 64,-230.5 64,-230.5 163,-230.5 163,-230.5 169,-230.5 175,-236.5 175,-242.5 175,-242.5 175,-286.5 175,-286.5 175,-292.5 169,-298.5 163,-298.5"/>
<text text-anchor="start" x="84" y="-283.3" font-family="Helvetica,sans-Serif" font-size="14.00" fill="#000000">gini = 0.0</text>
<text text-anchor="start" x="69.5" y="-268.3" font-family="Helvetica,sans-Serif" font-size="14.00" fill="#000000">samples = 35</text>
<text text-anchor="start" x="60" y="-253.3" font-family="Helvetica,sans-Serif" font-size="14.00" fill="#000000">value = [0, 35, 0]</text>
<text text-anchor="start" x="84.5" y="-238.3" font-family="Helvetica,sans-Serif" font-size="14.00" fill="#000000">class = p</text>
</g>
<!-- 3&#45;&gt;4 -->
<g id="edge4" class="edge">
<title>3&#45;&gt;4</title>
<path fill="none" stroke="#000000" d="M210.387,-341.8796C195.5174,-330.0038 179.336,-317.0804 164.5317,-305.2568"/>
<polygon fill="#000000" stroke="#000000" points="166.4638,-302.3207 156.4658,-298.8149 162.0954,-307.7904 166.4638,-302.3207"/>
</g>
<!-- 5 -->
<g id="node6" class="node">
<title>5</title>
<path fill="#a06aec" stroke="#000000" d="M324,-306C324,-306 205,-306 205,-306 199,-306 193,-300 193,-294 193,-294 193,-235 193,-235 193,-229 199,-223 205,-223 205,-223 324,-223 324,-223 330,-223 336,-229 336,-235 336,-235 336,-294 336,-294 336,-300 330,-306 324,-306"/>
<text text-anchor="start" x="201" y="-290.8" font-family="Helvetica,sans-Serif" font-size="14.00" fill="#000000">sepal_length ≤ 6.05</text>
<text text-anchor="start" x="231" y="-275.8" font-family="Helvetica,sans-Serif" font-size="14.00" fill="#000000">gini = 0.32</text>
<text text-anchor="start" x="225" y="-260.8" font-family="Helvetica,sans-Serif" font-size="14.00" fill="#000000">samples = 5</text>
<text text-anchor="start" x="215" y="-245.8" font-family="Helvetica,sans-Serif" font-size="14.00" fill="#000000">value = [0, 1, 4]</text>
<text text-anchor="start" x="235.5" y="-230.8" font-family="Helvetica,sans-Serif" font-size="14.00" fill="#000000">class = e</text>
</g>
<!-- 3&#45;&gt;5 -->
<g id="edge5" class="edge">
<title>3&#45;&gt;5</title>
<path fill="none" stroke="#000000" d="M263.1995,-341.8796C263.3372,-333.6838 263.4834,-324.9891 263.626,-316.5013"/>
<polygon fill="#000000" stroke="#000000" points="267.1289,-316.3555 263.7975,-306.2981 260.1299,-316.2378 267.1289,-316.3555"/>
</g>
<!-- 6 -->
<g id="node7" class="node">
<title>6</title>
<path fill="#ffffff" stroke="#000000" d="M181.5,-187C181.5,-187 65.5,-187 65.5,-187 59.5,-187 53.5,-181 53.5,-175 53.5,-175 53.5,-116 53.5,-116 53.5,-110 59.5,-104 65.5,-104 65.5,-104 181.5,-104 181.5,-104 187.5,-104 193.5,-110 193.5,-116 193.5,-116 193.5,-175 193.5,-175 193.5,-181 187.5,-187 181.5,-187"/>
<text text-anchor="start" x="61.5" y="-171.8" font-family="Helvetica,sans-Serif" font-size="14.00" fill="#000000">petal_length ≤ 5.05</text>
<text text-anchor="start" x="94" y="-156.8" font-family="Helvetica,sans-Serif" font-size="14.00" fill="#000000">gini = 0.5</text>
<text text-anchor="start" x="84" y="-141.8" font-family="Helvetica,sans-Serif" font-size="14.00" fill="#000000">samples = 2</text>
<text text-anchor="start" x="74" y="-126.8" font-family="Helvetica,sans-Serif" font-size="14.00" fill="#000000">value = [0, 1, 1]</text>
<text text-anchor="start" x="94.5" y="-111.8" font-family="Helvetica,sans-Serif" font-size="14.00" fill="#000000">class = p</text>
</g>
<!-- 5&#45;&gt;6 -->
<g id="edge6" class="edge">
<title>5&#45;&gt;6</title>
<path fill="none" stroke="#000000" d="M215.185,-222.8796C204.0868,-213.513 192.2165,-203.4948 180.8223,-193.8784"/>
<polygon fill="#000000" stroke="#000000" points="182.925,-191.0731 173.0254,-187.2981 178.4101,-196.4225 182.925,-191.0731"/>
</g>
<!-- 9 -->
<g id="node10" class="node">
<title>9</title>
<path fill="#8139e5" stroke="#000000" d="M315,-179.5C315,-179.5 224,-179.5 224,-179.5 218,-179.5 212,-173.5 212,-167.5 212,-167.5 212,-123.5 212,-123.5 212,-117.5 218,-111.5 224,-111.5 224,-111.5 315,-111.5 315,-111.5 321,-111.5 327,-117.5 327,-123.5 327,-123.5 327,-167.5 327,-167.5 327,-173.5 321,-179.5 315,-179.5"/>
<text text-anchor="start" x="240" y="-164.3" font-family="Helvetica,sans-Serif" font-size="14.00" fill="#000000">gini = 0.0</text>
<text text-anchor="start" x="230" y="-149.3" font-family="Helvetica,sans-Serif" font-size="14.00" fill="#000000">samples = 3</text>
<text text-anchor="start" x="220" y="-134.3" font-family="Helvetica,sans-Serif" font-size="14.00" fill="#000000">value = [0, 0, 3]</text>
<text text-anchor="start" x="240.5" y="-119.3" font-family="Helvetica,sans-Serif" font-size="14.00" fill="#000000">class = e</text>
</g>
<!-- 5&#45;&gt;9 -->
<g id="edge9" class="edge">
<title>5&#45;&gt;9</title>
<path fill="none" stroke="#000000" d="M266.2488,-222.8796C266.6969,-212.2134 267.1806,-200.7021 267.6344,-189.9015"/>
<polygon fill="#000000" stroke="#000000" points="271.1352,-189.9531 268.0582,-179.8149 264.1414,-189.6592 271.1352,-189.9531"/>
</g>
<!-- 7 -->
<g id="node8" class="node">
<title>7</title>
<path fill="#8139e5" stroke="#000000" d="M103,-68C103,-68 12,-68 12,-68 6,-68 0,-62 0,-56 0,-56 0,-12 0,-12 0,-6 6,0 12,0 12,0 103,0 103,0 109,0 115,-6 115,-12 115,-12 115,-56 115,-56 115,-62 109,-68 103,-68"/>
<text text-anchor="start" x="28" y="-52.8" font-family="Helvetica,sans-Serif" font-size="14.00" fill="#000000">gini = 0.0</text>
<text text-anchor="start" x="18" y="-37.8" font-family="Helvetica,sans-Serif" font-size="14.00" fill="#000000">samples = 1</text>
<text text-anchor="start" x="8" y="-22.8" font-family="Helvetica,sans-Serif" font-size="14.00" fill="#000000">value = [0, 0, 1]</text>
<text text-anchor="start" x="28.5" y="-7.8" font-family="Helvetica,sans-Serif" font-size="14.00" fill="#000000">class = e</text>
</g>
<!-- 6&#45;&gt;7 -->
<g id="edge7" class="edge">
<title>6&#45;&gt;7</title>
<path fill="none" stroke="#000000" d="M98.924,-103.9815C93.7014,-95.1585 88.1771,-85.8258 82.9237,-76.9506"/>
<polygon fill="#000000" stroke="#000000" points="85.8874,-75.0863 77.7816,-68.2637 79.8636,-78.652 85.8874,-75.0863"/>
</g>
<!-- 8 -->
<g id="node9" class="node">
<title>8</title>
<path fill="#39e581" stroke="#000000" d="M236,-68C236,-68 145,-68 145,-68 139,-68 133,-62 133,-56 133,-56 133,-12 133,-12 133,-6 139,0 145,0 145,0 236,0 236,0 242,0 248,-6 248,-12 248,-12 248,-56 248,-56 248,-62 242,-68 236,-68"/>
<text text-anchor="start" x="161" y="-52.8" font-family="Helvetica,sans-Serif" font-size="14.00" fill="#000000">gini = 0.0</text>
<text text-anchor="start" x="151" y="-37.8" font-family="Helvetica,sans-Serif" font-size="14.00" fill="#000000">samples = 1</text>
<text text-anchor="start" x="141" y="-22.8" font-family="Helvetica,sans-Serif" font-size="14.00" fill="#000000">value = [0, 1, 0]</text>
<text text-anchor="start" x="161.5" y="-7.8" font-family="Helvetica,sans-Serif" font-size="14.00" fill="#000000">class = p</text>
</g>
<!-- 6&#45;&gt;8 -->
<g id="edge8" class="edge">
<title>6&#45;&gt;8</title>
<path fill="none" stroke="#000000" d="M148.4483,-103.9815C153.7501,-95.1585 159.3581,-85.8258 164.6911,-76.9506"/>
<polygon fill="#000000" stroke="#000000" points="167.7605,-78.638 169.9111,-68.2637 161.7604,-75.0325 167.7605,-78.638"/>
</g>
<!-- 11 -->
<g id="node12" class="node">
<title>11</title>
<path fill="#ab7bee" stroke="#000000" d="M472,-306C472,-306 367,-306 367,-306 361,-306 355,-300 355,-294 355,-294 355,-235 355,-235 355,-229 361,-223 367,-223 367,-223 472,-223 472,-223 478,-223 484,-229 484,-235 484,-235 484,-294 484,-294 484,-300 478,-306 472,-306"/>
<text text-anchor="start" x="363" y="-290.8" font-family="Helvetica,sans-Serif" font-size="14.00" fill="#000000">sepal_width ≤ 3.1</text>
<text text-anchor="start" x="381.5" y="-275.8" font-family="Helvetica,sans-Serif" font-size="14.00" fill="#000000">gini = 0.375</text>
<text text-anchor="start" x="380" y="-260.8" font-family="Helvetica,sans-Serif" font-size="14.00" fill="#000000">samples = 4</text>
<text text-anchor="start" x="370" y="-245.8" font-family="Helvetica,sans-Serif" font-size="14.00" fill="#000000">value = [0, 1, 3]</text>
<text text-anchor="start" x="390.5" y="-230.8" font-family="Helvetica,sans-Serif" font-size="14.00" fill="#000000">class = e</text>
</g>
<!-- 10&#45;&gt;11 -->
<g id="edge11" class="edge">
<title>10&#45;&gt;11</title>
<path fill="none" stroke="#000000" d="M420.1502,-341.8796C420.0814,-333.6838 420.0083,-324.9891 419.937,-316.5013"/>
<polygon fill="#000000" stroke="#000000" points="423.4352,-316.2683 419.8512,-306.2981 416.4355,-316.3272 423.4352,-316.2683"/>
</g>
<!-- 14 -->
<g id="node15" class="node">
<title>14</title>
<path fill="#8139e5" stroke="#000000" d="M613,-298.5C613,-298.5 514,-298.5 514,-298.5 508,-298.5 502,-292.5 502,-286.5 502,-286.5 502,-242.5 502,-242.5 502,-236.5 508,-230.5 514,-230.5 514,-230.5 613,-230.5 613,-230.5 619,-230.5 625,-236.5 625,-242.5 625,-242.5 625,-286.5 625,-286.5 625,-292.5 619,-298.5 613,-298.5"/>
<text text-anchor="start" x="534" y="-283.3" font-family="Helvetica,sans-Serif" font-size="14.00" fill="#000000">gini = 0.0</text>
<text text-anchor="start" x="519.5" y="-268.3" font-family="Helvetica,sans-Serif" font-size="14.00" fill="#000000">samples = 37</text>
<text text-anchor="start" x="510" y="-253.3" font-family="Helvetica,sans-Serif" font-size="14.00" fill="#000000">value = [0, 0, 37]</text>
<text text-anchor="start" x="534.5" y="-238.3" font-family="Helvetica,sans-Serif" font-size="14.00" fill="#000000">class = e</text>
</g>
<!-- 10&#45;&gt;14 -->
<g id="edge14" class="edge">
<title>10&#45;&gt;14</title>
<path fill="none" stroke="#000000" d="M470.5145,-341.8796C484.7853,-330.0038 500.3151,-317.0804 514.5233,-305.2568"/>
<polygon fill="#000000" stroke="#000000" points="516.8166,-307.9019 522.2644,-298.8149 512.339,-302.5212 516.8166,-307.9019"/>
</g>
<!-- 12 -->
<g id="node13" class="node">
<title>12</title>
<path fill="#8139e5" stroke="#000000" d="M460,-179.5C460,-179.5 369,-179.5 369,-179.5 363,-179.5 357,-173.5 357,-167.5 357,-167.5 357,-123.5 357,-123.5 357,-117.5 363,-111.5 369,-111.5 369,-111.5 460,-111.5 460,-111.5 466,-111.5 472,-117.5 472,-123.5 472,-123.5 472,-167.5 472,-167.5 472,-173.5 466,-179.5 460,-179.5"/>
<text text-anchor="start" x="385" y="-164.3" font-family="Helvetica,sans-Serif" font-size="14.00" fill="#000000">gini = 0.0</text>
<text text-anchor="start" x="375" y="-149.3" font-family="Helvetica,sans-Serif" font-size="14.00" fill="#000000">samples = 3</text>
<text text-anchor="start" x="365" y="-134.3" font-family="Helvetica,sans-Serif" font-size="14.00" fill="#000000">value = [0, 0, 3]</text>
<text text-anchor="start" x="385.5" y="-119.3" font-family="Helvetica,sans-Serif" font-size="14.00" fill="#000000">class = e</text>
</g>
<!-- 11&#45;&gt;12 -->
<g id="edge12" class="edge">
<title>11&#45;&gt;12</title>
<path fill="none" stroke="#000000" d="M417.7512,-222.8796C417.3031,-212.2134 416.8194,-200.7021 416.3656,-189.9015"/>
<polygon fill="#000000" stroke="#000000" points="419.8586,-189.6592 415.9418,-179.8149 412.8648,-189.9531 419.8586,-189.6592"/>
</g>
<!-- 13 -->
<g id="node14" class="node">
<title>13</title>
<path fill="#39e581" stroke="#000000" d="M593,-179.5C593,-179.5 502,-179.5 502,-179.5 496,-179.5 490,-173.5 490,-167.5 490,-167.5 490,-123.5 490,-123.5 490,-117.5 496,-111.5 502,-111.5 502,-111.5 593,-111.5 593,-111.5 599,-111.5 605,-117.5 605,-123.5 605,-123.5 605,-167.5 605,-167.5 605,-173.5 599,-179.5 593,-179.5"/>
<text text-anchor="start" x="518" y="-164.3" font-family="Helvetica,sans-Serif" font-size="14.00" fill="#000000">gini = 0.0</text>
<text text-anchor="start" x="508" y="-149.3" font-family="Helvetica,sans-Serif" font-size="14.00" fill="#000000">samples = 1</text>
<text text-anchor="start" x="498" y="-134.3" font-family="Helvetica,sans-Serif" font-size="14.00" fill="#000000">value = [0, 1, 0]</text>
<text text-anchor="start" x="518.5" y="-119.3" font-family="Helvetica,sans-Serif" font-size="14.00" fill="#000000">class = p</text>
</g>
<!-- 11&#45;&gt;13 -->
<g id="edge13" class="edge">
<title>11&#45;&gt;13</title>
<path fill="none" stroke="#000000" d="M464.2682,-222.8796C476.8056,-211.2237 490.4284,-198.5587 502.953,-186.9148"/>
<polygon fill="#000000" stroke="#000000" points="505.6491,-189.1872 510.5898,-179.8149 500.8828,-184.0605 505.6491,-189.1872"/>
</g>
</g>
</svg>
