<?xml version="1.0" encoding="UTF-8" standalone="no"?>
<!DOCTYPE svg PUBLIC "-//W3C//DTD SVG 1.1//EN"
 "http://www.w3.org/Graphics/SVG/1.1/DTD/svg11.dtd">
<!-- Generated by graphviz version 2.40.1 (20161225.0304)
 -->
<!-- Title: Tree Pages: 1 -->
<svg width="576pt" height="671pt"
 viewBox="0.00 0.00 576.00 671.00" xmlns="http://www.w3.org/2000/svg" xmlns:xlink="http://www.w3.org/1999/xlink">
<g id="graph0" class="graph" transform="scale(1 1) rotate(0) translate(4 667)">
<title>Tree</title>
<polygon fill="#ffffff" stroke="transparent" points="-4,4 -4,-667 572,-667 572,4 -4,4"/>
<!-- 0 -->
<g id="node1" class="node">
<title>0</title>
<path fill="#f7f3fd" stroke="#000000" d="M268.5,-663C268.5,-663 152.5,-663 152.5,-663 146.5,-663 140.5,-657 140.5,-651 140.5,-651 140.5,-592 140.5,-592 140.5,-586 146.5,-580 152.5,-580 152.5,-580 268.5,-580 268.5,-580 274.5,-580 280.5,-586 280.5,-592 280.5,-592 280.5,-651 280.5,-651 280.5,-657 274.5,-663 268.5,-663"/>
<text text-anchor="start" x="156" y="-647.8" font-family="Helvetica,sans-Serif" font-size="14.00" fill="#000000">petal_width ≤ 0.8</text>
<text text-anchor="start" x="172.5" y="-632.8" font-family="Helvetica,sans-Serif" font-size="14.00" fill="#000000">gini = 0.665</text>
<text text-anchor="start" x="162.5" y="-617.8" font-family="Helvetica,sans-Serif" font-size="14.00" fill="#000000">samples = 120</text>
<text text-anchor="start" x="148.5" y="-602.8" font-family="Helvetica,sans-Serif" font-size="14.00" fill="#000000">value = [39, 37, 44]</text>
<text text-anchor="start" x="181.5" y="-587.8" font-family="Helvetica,sans-Serif" font-size="14.00" fill="#000000">class = e</text>
</g>
<!-- 1 -->
<g id="node2" class="node">
<title>1</title>
<path fill="#e58139" stroke="#000000" d="M187,-536.5C187,-536.5 88,-536.5 88,-536.5 82,-536.5 76,-530.5 76,-524.5 76,-524.5 76,-480.5 76,-480.5 76,-474.5 82,-468.5 88,-468.5 88,-468.5 187,-468.5 187,-468.5 193,-468.5 199,-474.5 199,-480.5 199,-480.5 199,-524.5 199,-524.5 199,-530.5 193,-536.5 187,-536.5"/>
<text text-anchor="start" x="108" y="-521.3" font-family="Helvetica,sans-Serif" font-size="14.00" fill="#000000">gini = 0.0</text>
<text text-anchor="start" x="93.5" y="-506.3" font-family="Helvetica,sans-Serif" font-size="14.00" fill="#000000">samples = 39</text>
<text text-anchor="start" x="84" y="-491.3" font-family="Helvetica,sans-Serif" font-size="14.00" fill="#000000">value = [39, 0, 0]</text>
<text text-anchor="start" x="108.5" y="-476.3" font-family="Helvetica,sans-Serif" font-size="14.00" fill="#000000">class = s</text>
</g>
<!-- 0&#45;&gt;1 -->
<g id="edge1" class="edge">
<title>0&#45;&gt;1</title>
<path fill="none" stroke="#000000" d="M184.9681,-579.8796C178.1552,-568.7735 170.7802,-556.7513 163.9206,-545.5691"/>
<polygon fill="#000000" stroke="#000000" points="166.7628,-543.5087 158.5503,-536.8149 160.796,-547.1691 166.7628,-543.5087"/>
<text text-anchor="middle" x="152.7256" y="-557.4269" font-family="Helvetica,sans-Serif" font-size="14.00" fill="#000000">True</text>
</g>
<!-- 2 -->
<g id="node3" class="node">
<title>2</title>
<path fill="#ebe0fb" stroke="#000000" d="M339.5,-544C339.5,-544 229.5,-544 229.5,-544 223.5,-544 217.5,-538 217.5,-532 217.5,-532 217.5,-473 217.5,-473 217.5,-467 223.5,-461 229.5,-461 229.5,-461 339.5,-461 339.5,-461 345.5,-461 351.5,-467 351.5,-473 351.5,-473 351.5,-532 351.5,-532 351.5,-538 345.5,-544 339.5,-544"/>
<text text-anchor="start" x="225.5" y="-528.8" font-family="Helvetica,sans-Serif" font-size="14.00" fill="#000000">petal_width ≤ 1.65</text>
<text text-anchor="start" x="246.5" y="-513.8" font-family="Helvetica,sans-Serif" font-size="14.00" fill="#000000">gini = 0.496</text>
<text text-anchor="start" x="240.5" y="-498.8" font-family="Helvetica,sans-Serif" font-size="14.00" fill="#000000">samples = 81</text>
<text text-anchor="start" x="227" y="-483.8" font-family="Helvetica,sans-Serif" font-size="14.00" fill="#000000">value = [0, 37, 44]</text>
<text text-anchor="start" x="255.5" y="-468.8" font-family="Helvetica,sans-Serif" font-size="14.00" fill="#000000">class = e</text>
</g>
<!-- 0&#45;&gt;2 -->
<g id="edge2" class="edge">
<title>0&#45;&gt;2</title>
<path fill="none" stroke="#000000" d="M236.3816,-579.8796C241.8142,-571.1434 247.5992,-561.8404 253.2053,-552.8253"/>
<polygon fill="#000000" stroke="#000000" points="256.1993,-554.6383 258.5079,-544.2981 250.2549,-550.9418 256.1993,-554.6383"/>
<text text-anchor="middle" x="264.1847" y="-564.945" font-family="Helvetica,sans-Serif" font-size="14.00" fill="#000000">False</text>
</g>
<!-- 3 -->
<g id="node4" class="node">
<title>3</title>
<path fill="#4fe88f" stroke="#000000" d="M263.5,-425C263.5,-425 147.5,-425 147.5,-425 141.5,-425 135.5,-419 135.5,-413 135.5,-413 135.5,-354 135.5,-354 135.5,-348 141.5,-342 147.5,-342 147.5,-342 263.5,-342 263.5,-342 269.5,-342 275.5,-348 275.5,-354 275.5,-354 275.5,-413 275.5,-413 275.5,-419 269.5,-425 263.5,-425"/>
<text text-anchor="start" x="143.5" y="-409.8" font-family="Helvetica,sans-Serif" font-size="14.00" fill="#000000">petal_length ≤ 4.95</text>
<text text-anchor="start" x="172" y="-394.8" font-family="Helvetica,sans-Serif" font-size="14.00" fill="#000000">gini = 0.18</text>
<text text-anchor="start" x="161.5" y="-379.8" font-family="Helvetica,sans-Serif" font-size="14.00" fill="#000000">samples = 40</text>
<text text-anchor="start" x="152" y="-364.8" font-family="Helvetica,sans-Serif" font-size="14.00" fill="#000000">value = [0, 36, 4]</text>
<text text-anchor="start" x="176.5" y="-349.8" font-family="Helvetica,sans-Serif" font-size="14.00" fill="#000000">class = p</text>
</g>
<!-- 2&#45;&gt;3 -->
<g id="edge3" class="edge">
<title>2&#45;&gt;3</title>
<path fill="none" stroke="#000000" d="M256.8696,-460.8796C251.07,-452.1434 244.8941,-442.8404 238.9092,-433.8253"/>
<polygon fill="#000000" stroke="#000000" points="241.6951,-431.6935 233.2483,-425.2981 235.8632,-435.5652 241.6951,-431.6935"/>
</g>
<!-- 10 -->
<g id="node11" class="node">
<title>10</title>
<path fill="#843ee6" stroke="#000000" d="M421.5,-425C421.5,-425 305.5,-425 305.5,-425 299.5,-425 293.5,-419 293.5,-413 293.5,-413 293.5,-354 293.5,-354 293.5,-348 299.5,-342 305.5,-342 305.5,-342 421.5,-342 421.5,-342 427.5,-342 433.5,-348 433.5,-354 433.5,-354 433.5,-413 433.5,-413 433.5,-419 427.5,-425 421.5,-425"/>
<text text-anchor="start" x="301.5" y="-409.8" font-family="Helvetica,sans-Serif" font-size="14.00" fill="#000000">petal_length ≤ 4.85</text>
<text text-anchor="start" x="325.5" y="-394.8" font-family="Helvetica,sans-Serif" font-size="14.00" fill="#000000">gini = 0.048</text>
<text text-anchor="start" x="319.5" y="-379.8" font-family="Helvetica,sans-Serif" font-size="14.00" fill="#000000">samples = 41</text>
<text text-anchor="start" x="310" y="-364.8" font-family="Helvetica,sans-Serif" font-size="14.00" fill="#000000">value = [0, 1, 40]</text>
<text text-anchor="start" x="334.5" y="-349.8" font-family="Helvetica,sans-Serif" font-size="14.00" fill="#000000">class = e</text>
</g>
<!-- 2&#45;&gt;10 -->
<g id="edge10" class="edge">
<title>2&#45;&gt;10</title>
<path fill="none" stroke="#000000" d="M312.1304,-460.8796C317.93,-452.1434 324.1059,-442.8404 330.0908,-433.8253"/>
<polygon fill="#000000" stroke="#000000" points="333.1368,-435.5652 335.7517,-425.2981 327.3049,-431.6935 333.1368,-435.5652"/>
</g>
<!-- 4 -->
<g id="node5" class="node">
<title>4</title>
<path fill="#39e581" stroke="#000000" d="M111,-298.5C111,-298.5 12,-298.5 12,-298.5 6,-298.5 0,-292.5 0,-286.5 0,-286.5 0,-242.5 0,-242.5 0,-236.5 6,-230.5 12,-230.5 12,-230.5 111,-230.5 111,-230.5 117,-230.5 123,-236.5 123,-242.5 123,-242.5 123,-286.5 123,-286.5 123,-292.5 117,-298.5 111,-298.5"/>
<text text-anchor="start" x="32" y="-283.3" font-family="Helvetica,sans-Serif" font-size="14.00" fill="#000000">gini = 0.0</text>
<text text-anchor="start" x="17.5" y="-268.3" font-family="Helvetica,sans-Serif" font-size="14.00" fill="#000000">samples = 35</text>
<text text-anchor="start" x="8" y="-253.3" font-family="Helvetica,sans-Serif" font-size="14.00" fill="#000000">value = [0, 35, 0]</text>
<text text-anchor="start" x="32.5" y="-238.3" font-family="Helvetica,sans-Serif" font-size="14.00" fill="#000000">class = p</text>
</g>
<!-- 3&#45;&gt;4 -->
<g id="edge4" class="edge">
<title>3&#45;&gt;4</title>
<path fill="none" stroke="#000000" d="M155.1358,-341.8796C140.7651,-330.0038 125.1267,-317.0804 110.8192,-305.2568"/>
<polygon fill="#000000" stroke="#000000" points="112.962,-302.4872 103.024,-298.8149 108.5029,-307.8831 112.962,-302.4872"/>
</g>
<!-- 5 -->
<g id="node6" class="node">
<title>5</title>
<path fill="#a06aec" stroke="#000000" d="M263.5,-306C263.5,-306 153.5,-306 153.5,-306 147.5,-306 141.5,-300 141.5,-294 141.5,-294 141.5,-235 141.5,-235 141.5,-229 147.5,-223 153.5,-223 153.5,-223 263.5,-223 263.5,-223 269.5,-223 275.5,-229 275.5,-235 275.5,-235 275.5,-294 275.5,-294 275.5,-300 269.5,-306 263.5,-306"/>
<text text-anchor="start" x="149.5" y="-290.8" font-family="Helvetica,sans-Serif" font-size="14.00" fill="#000000">petal_width ≤ 1.55</text>
<text text-anchor="start" x="175" y="-275.8" font-family="Helvetica,sans-Serif" font-size="14.00" fill="#000000">gini = 0.32</text>
<text text-anchor="start" x="169" y="-260.8" font-family="Helvetica,sans-Serif" font-size="14.00" fill="#000000">samples = 5</text>
<text text-anchor="start" x="159" y="-245.8" font-family="Helvetica,sans-Serif" font-size="14.00" fill="#000000">value = [0, 1, 4]</text>
<text text-anchor="start" x="179.5" y="-230.8" font-family="Helvetica,sans-Serif" font-size="14.00" fill="#000000">class = e</text>
</g>
<!-- 3&#45;&gt;5 -->
<g id="edge5" class="edge">
<title>3&#45;&gt;5</title>
<path fill="none" stroke="#000000" d="M206.5493,-341.8796C206.7559,-333.6838 206.9751,-324.9891 207.189,-316.5013"/>
<polygon fill="#000000" stroke="#000000" points="210.693,-316.3831 207.4463,-306.2981 203.6953,-316.2067 210.693,-316.3831"/>
</g>
<!-- 6 -->
<g id="node7" class="node">
<title>6</title>
<path fill="#8139e5" stroke="#000000" d="M112,-179.5C112,-179.5 21,-179.5 21,-179.5 15,-179.5 9,-173.5 9,-167.5 9,-167.5 9,-123.5 9,-123.5 9,-117.5 15,-111.5 21,-111.5 21,-111.5 112,-111.5 112,-111.5 118,-111.5 124,-117.5 124,-123.5 124,-123.5 124,-167.5 124,-167.5 124,-173.5 118,-179.5 112,-179.5"/>
<text text-anchor="start" x="37" y="-164.3" font-family="Helvetica,sans-Serif" font-size="14.00" fill="#000000">gini = 0.0</text>
<text text-anchor="start" x="27" y="-149.3" font-family="Helvetica,sans-Serif" font-size="14.00" fill="#000000">samples = 3</text>
<text text-anchor="start" x="17" y="-134.3" font-family="Helvetica,sans-Serif" font-size="14.00" fill="#000000">value = [0, 0, 3]</text>
<text text-anchor="start" x="37.5" y="-119.3" font-family="Helvetica,sans-Serif" font-size="14.00" fill="#000000">class = e</text>
</g>
<!-- 5&#45;&gt;6 -->
<g id="edge6" class="edge">
<title>5&#45;&gt;6</title>
<path fill="none" stroke="#000000" d="M158.8353,-222.8796C144.6642,-211.0038 129.243,-198.0804 115.1342,-186.2568"/>
<polygon fill="#000000" stroke="#000000" points="117.3598,-183.5554 107.4472,-179.8149 112.8637,-188.9206 117.3598,-183.5554"/>
</g>
<!-- 7 -->
<g id="node8" class="node">
<title>7</title>
<path fill="#ffffff" stroke="#000000" d="M267,-187C267,-187 154,-187 154,-187 148,-187 142,-181 142,-175 142,-175 142,-116 142,-116 142,-110 148,-104 154,-104 154,-104 267,-104 267,-104 273,-104 279,-110 279,-116 279,-116 279,-175 279,-175 279,-181 273,-187 267,-187"/>
<text text-anchor="start" x="150" y="-171.8" font-family="Helvetica,sans-Serif" font-size="14.00" fill="#000000">sepal_width ≤ 2.85</text>
<text text-anchor="start" x="181" y="-156.8" font-family="Helvetica,sans-Serif" font-size="14.00" fill="#000000">gini = 0.5</text>
<text text-anchor="start" x="171" y="-141.8" font-family="Helvetica,sans-Serif" font-size="14.00" fill="#000000">samples = 2</text>
<text text-anchor="start" x="161" y="-126.8" font-family="Helvetica,sans-Serif" font-size="14.00" fill="#000000">value = [0, 1, 1]</text>
<text text-anchor="start" x="181.5" y="-111.8" font-family="Helvetica,sans-Serif" font-size="14.00" fill="#000000">class = p</text>
</g>
<!-- 5&#45;&gt;7 -->
<g id="edge7" class="edge">
<title>5&#45;&gt;7</title>
<path fill="none" stroke="#000000" d="M209.1995,-222.8796C209.3372,-214.6838 209.4834,-205.9891 209.626,-197.5013"/>
<polygon fill="#000000" stroke="#000000" points="213.1289,-197.3555 209.7975,-187.2981 206.1299,-197.2378 213.1289,-197.3555"/>
</g>
<!-- 8 -->
<g id="node9" class="node">
<title>8</title>
<path fill="#39e581" stroke="#000000" d="M190,-68C190,-68 99,-68 99,-68 93,-68 87,-62 87,-56 87,-56 87,-12 87,-12 87,-6 93,0 99,0 99,0 190,0 190,0 196,0 202,-6 202,-12 202,-12 202,-56 202,-56 202,-62 196,-68 190,-68"/>
<text text-anchor="start" x="115" y="-52.8" font-family="Helvetica,sans-Serif" font-size="14.00" fill="#000000">gini = 0.0</text>
<text text-anchor="start" x="105" y="-37.8" font-family="Helvetica,sans-Serif" font-size="14.00" fill="#000000">samples = 1</text>
<text text-anchor="start" x="95" y="-22.8" font-family="Helvetica,sans-Serif" font-size="14.00" fill="#000000">value = [0, 1, 0]</text>
<text text-anchor="start" x="115.5" y="-7.8" font-family="Helvetica,sans-Serif" font-size="14.00" fill="#000000">class = p</text>
</g>
<!-- 7&#45;&gt;8 -->
<g id="edge8" class="edge">
<title>7&#45;&gt;8</title>
<path fill="none" stroke="#000000" d="M185.924,-103.9815C180.7014,-95.1585 175.1771,-85.8258 169.9237,-76.9506"/>
<polygon fill="#000000" stroke="#000000" points="172.8874,-75.0863 164.7816,-68.2637 166.8636,-78.652 172.8874,-75.0863"/>
</g>
<!-- 9 -->
<g id="node10" class="node">
<title>9</title>
<path fill="#8139e5" stroke="#000000" d="M323,-68C323,-68 232,-68 232,-68 226,-68 220,-62 220,-56 220,-56 220,-12 220,-12 220,-6 226,0 232,0 232,0 323,0 323,0 329,0 335,-6 335,-12 335,-12 335,-56 335,-56 335,-62 329,-68 323,-68"/>
<text text-anchor="start" x="248" y="-52.8" font-family="Helvetica,sans-Serif" font-size="14.00" fill="#000000">gini = 0.0</text>
<text text-anchor="start" x="238" y="-37.8" font-family="Helvetica,sans-Serif" font-size="14.00" fill="#000000">samples = 1</text>
<text text-anchor="start" x="228" y="-22.8" font-family="Helvetica,sans-Serif" font-size="14.00" fill="#000000">value = [0, 0, 1]</text>
<text text-anchor="start" x="248.5" y="-7.8" font-family="Helvetica,sans-Serif" font-size="14.00" fill="#000000">class = e</text>
</g>
<!-- 7&#45;&gt;9 -->
<g id="edge9" class="edge">
<title>7&#45;&gt;9</title>
<path fill="none" stroke="#000000" d="M235.4483,-103.9815C240.7501,-95.1585 246.3581,-85.8258 251.6911,-76.9506"/>
<polygon fill="#000000" stroke="#000000" points="254.7605,-78.638 256.9111,-68.2637 248.7604,-75.0325 254.7605,-78.638"/>
</g>
<!-- 11 -->
<g id="node12" class="node">
<title>11</title>
<path fill="#ab7bee" stroke="#000000" d="M415,-306C415,-306 310,-306 310,-306 304,-306 298,-300 298,-294 298,-294 298,-235 298,-235 298,-229 304,-223 310,-223 310,-223 415,-223 415,-223 421,-223 427,-229 427,-235 427,-235 427,-294 427,-294 427,-300 421,-306 415,-306"/>
<text text-anchor="start" x="306" y="-290.8" font-family="Helvetica,sans-Serif" font-size="14.00" fill="#000000">sepal_width ≤ 3.1</text>
<text text-anchor="start" x="324.5" y="-275.8" font-family="Helvetica,sans-Serif" font-size="14.00" fill="#000000">gini = 0.375</text>
<text text-anchor="start" x="323" y="-260.8" font-family="Helvetica,sans-Serif" font-size="14.00" fill="#000000">samples = 4</text>
<text text-anchor="start" x="313" y="-245.8" font-family="Helvetica,sans-Serif" font-size="14.00" fill="#000000">value = [0, 1, 3]</text>
<text text-anchor="start" x="333.5" y="-230.8" font-family="Helvetica,sans-Serif" font-size="14.00" fill="#000000">class = e</text>
</g>
<!-- 10&#45;&gt;11 -->
<g id="edge11" class="edge">
<title>10&#45;&gt;11</title>
<path fill="none" stroke="#000000" d="M363.1502,-341.8796C363.0814,-333.6838 363.0083,-324.9891 362.937,-316.5013"/>
<polygon fill="#000000" stroke="#000000" points="366.4352,-316.2683 362.8512,-306.2981 359.4355,-316.3272 366.4352,-316.2683"/>
</g>
<!-- 14 -->
<g id="node15" class="node">
<title>14</title>
<path fill="#8139e5" stroke="#000000" d="M556,-298.5C556,-298.5 457,-298.5 457,-298.5 451,-298.5 445,-292.5 445,-286.5 445,-286.5 445,-242.5 445,-242.5 445,-236.5 451,-230.5 457,-230.5 457,-230.5 556,-230.5 556,-230.5 562,-230.5 568,-236.5 568,-242.5 568,-242.5 568,-286.5 568,-286.5 568,-292.5 562,-298.5 556,-298.5"/>
<text text-anchor="start" x="477" y="-283.3" font-family="Helvetica,sans-Serif" font-size="14.00" fill="#000000">gini = 0.0</text>
<text text-anchor="start" x="462.5" y="-268.3" font-family="Helvetica,sans-Serif" font-size="14.00" fill="#000000">samples = 37</text>
<text text-anchor="start" x="453" y="-253.3" font-family="Helvetica,sans-Serif" font-size="14.00" fill="#000000">value = [0, 0, 37]</text>
<text text-anchor="start" x="477.5" y="-238.3" font-family="Helvetica,sans-Serif" font-size="14.00" fill="#000000">class = e</text>
</g>
<!-- 10&#45;&gt;14 -->
<g id="edge14" class="edge">
<title>10&#45;&gt;14</title>
<path fill="none" stroke="#000000" d="M413.5145,-341.8796C427.7853,-330.0038 443.3151,-317.0804 457.5233,-305.2568"/>
<polygon fill="#000000" stroke="#000000" points="459.8166,-307.9019 465.2644,-298.8149 455.339,-302.5212 459.8166,-307.9019"/>
</g>
<!-- 12 -->
<g id="node13" class="node">
<title>12</title>
<path fill="#8139e5" stroke="#000000" d="M407,-179.5C407,-179.5 316,-179.5 316,-179.5 310,-179.5 304,-173.5 304,-167.5 304,-167.5 304,-123.5 304,-123.5 304,-117.5 310,-111.5 316,-111.5 316,-111.5 407,-111.5 407,-111.5 413,-111.5 419,-117.5 419,-123.5 419,-123.5 419,-167.5 419,-167.5 419,-173.5 413,-179.5 407,-179.5"/>
<text text-anchor="start" x="332" y="-164.3" font-family="Helvetica,sans-Serif" font-size="14.00" fill="#000000">gini = 0.0</text>
<text text-anchor="start" x="322" y="-149.3" font-family="Helvetica,sans-Serif" font-size="14.00" fill="#000000">samples = 3</text>
<text text-anchor="start" x="312" y="-134.3" font-family="Helvetica,sans-Serif" font-size="14.00" fill="#000000">value = [0, 0, 3]</text>
<text text-anchor="start" x="332.5" y="-119.3" font-family="Helvetica,sans-Serif" font-size="14.00" fill="#000000">class = e</text>
</g>
<!-- 11&#45;&gt;12 -->
<g id="edge12" class="edge">
<title>11&#45;&gt;12</title>
<path fill="none" stroke="#000000" d="M362.1502,-222.8796C362.0606,-212.2134 361.9639,-200.7021 361.8731,-189.9015"/>
<polygon fill="#000000" stroke="#000000" points="365.3724,-189.7851 361.7884,-179.8149 358.3726,-189.844 365.3724,-189.7851"/>
</g>
<!-- 13 -->
<g id="node14" class="node">
<title>13</title>
<path fill="#39e581" stroke="#000000" d="M540,-179.5C540,-179.5 449,-179.5 449,-179.5 443,-179.5 437,-173.5 437,-167.5 437,-167.5 437,-123.5 437,-123.5 437,-117.5 443,-111.5 449,-111.5 449,-111.5 540,-111.5 540,-111.5 546,-111.5 552,-117.5 552,-123.5 552,-123.5 552,-167.5 552,-167.5 552,-173.5 546,-179.5 540,-179.5"/>
<text text-anchor="start" x="465" y="-164.3" font-family="Helvetica,sans-Serif" font-size="14.00" fill="#000000">gini = 0.0</text>
<text text-anchor="start" x="455" y="-149.3" font-family="Helvetica,sans-Serif" font-size="14.00" fill="#000000">samples = 1</text>
<text text-anchor="start" x="445" y="-134.3" font-family="Helvetica,sans-Serif" font-size="14.00" fill="#000000">value = [0, 1, 0]</text>
<text text-anchor="start" x="465.5" y="-119.3" font-family="Helvetica,sans-Serif" font-size="14.00" fill="#000000">class = p</text>
</g>
<!-- 11&#45;&gt;13 -->
<g id="edge13" class="edge">
<title>11&#45;&gt;13</title>
<path fill="none" stroke="#000000" d="M408.6672,-222.8796C421.7183,-211.1138 435.9101,-198.3197 448.9261,-186.5855"/>
<polygon fill="#000000" stroke="#000000" points="451.3526,-189.1104 456.4364,-179.8149 446.6654,-183.9113 451.3526,-189.1104"/>
</g>
</g>
</svg>
